<?xml version="1.0" encoding="utf-8"?>
<!-- Generator: Adobe Illustrator 26.0.1, SVG Export Plug-In . SVG Version: 6.00 Build 0)  -->
<svg version="1.1" id="Layer_1" xmlns="http://www.w3.org/2000/svg" xmlns:xlink="http://www.w3.org/1999/xlink" x="0px" y="0px"
	 viewBox="0 0 1000 268.68" style="enable-background:new 0 0 1000 268.68;" xml:space="preserve">
<style type="text/css">
	.st0{fill:#FFFFFF;}
</style>
<g>
	<path class="st0" d="M136.22,74.58c0.54-0.77,0.97-1.33,1.35-1.93c5.09-8.19,10.11-16.43,15.29-24.57
		c3.79-5.97,10.58-7.43,16.65-3.7c15.04,9.24,30.07,18.51,45.09,27.8c6.08,3.76,7.74,10.58,4,16.77
		c-6.18,10.26-17.64,22.5-16.42,35.23c0.54,5.67,3.27,9.4,6.42,13.85c3.63,5.13,6.68,10.83,9.96,16.21
		c3.75,6.15,2.24,12.97-3.88,16.79c-14.98,9.35-30,18.65-45.05,27.89c-6.32,3.88-12.97,2.34-16.94-3.92
		c-5.2-8.21-10.24-16.53-15.36-24.79c-0.15-0.24-0.33-0.46-0.71-0.97c-2.44,3.92-4.76,7.65-7.07,11.39
		c-3.07,4.96-6.11,9.95-9.21,14.89c-3.88,6.21-10.7,7.87-16.94,4.03c-15.12-9.29-30.21-18.61-45.29-27.97
		c-5.86-3.64-7.5-10.52-3.92-16.45c2.71-4.49,5.48-8.95,8.23-13.42c2.48-4.03,6.12-8.43,7.56-12.94c2.02-6.33,0.44-13.52-2.87-19.13
		c-1.74-2.95-3.91-5.62-5.72-8.55c-2.27-3.65-4.54-7.3-6.8-10.95c-4.13-6.68-2.59-13.45,4.11-17.61
		c14.94-9.27,29.9-18.51,44.87-27.73c6.19-3.8,13.01-1.93,17,4.54c4.95,8.03,9.9,16.05,14.85,24.07
		C135.6,73.74,135.82,74.02,136.22,74.58z M105.83,71.17c-8.57,5.31-16.98,10.53-25.42,15.76c1.04,1.71,1.84,3.06,2.66,4.39
		c5.31,8.55,10.25,16.09,11.25,26.39c0.96,9.9-1.12,21.13-7.25,29.17c-2.51,3.29-4.41,7.05-6.68,10.74
		c8.65,5.34,17.08,10.55,25.74,15.89c1.5-2.43,2.93-4.6,4.21-6.85c3.48-6.08,7.44-11.97,10.24-18.36
		c4.91-11.22,4.59-23.26,3.86-35.2c-0.39-6.29-1.36-12.63-4.36-18.24c-4.2-7.83-8.91-15.38-13.42-23.04
		C106.53,71.59,106.21,71.46,105.83,71.17z M192.49,86.3c-8.76-5.4-17.13-10.57-25.22-15.55c-14.15,17.19-20.78,36.3-19.14,58.6
		c1.25,16.95,10.05,29.95,18.74,43.52c8.68-5.38,17.08-10.58,25.62-15.87c-5.18-8.4-11.1-15.97-13.19-25.84
		c-2.55-12.06-0.04-23.26,6.28-33.61C187.84,93.86,190.11,90.19,192.49,86.3z"/>
</g>
<g>
	<path class="st0" d="M278.15,150c-5.12-2.65-9.11-6.33-11.98-11.03c-2.88-4.7-4.31-10.04-4.31-16.02c0-5.97,1.44-11.31,4.31-16.02
		c2.87-4.7,6.87-8.38,11.98-11.03c5.11-2.65,10.88-3.98,17.3-3.98c6.35,0,11.89,1.33,16.63,3.98c4.74,2.65,8.19,6.44,10.36,11.37
		l-13.55,7.28c-3.14-5.52-7.65-8.29-13.55-8.29c-4.56,0-8.33,1.49-11.31,4.48c-2.99,2.99-4.48,7.06-4.48,12.21s1.49,9.22,4.48,12.21
		c2.99,2.99,6.76,4.48,11.31,4.48c5.97,0,10.49-2.76,13.55-8.29l13.55,7.39c-2.17,4.78-5.62,8.51-10.36,11.2
		c-4.74,2.69-10.29,4.03-16.63,4.03C289.03,153.97,283.27,152.65,278.15,150z"/>
	<path class="st0" d="M342.33,150c-5.04-2.65-8.98-6.33-11.82-11.03c-2.84-4.7-4.26-10.04-4.26-16.02c0-5.97,1.42-11.31,4.26-16.02
		c2.84-4.7,6.78-8.38,11.82-11.03c5.04-2.65,10.73-3.98,17.08-3.98c6.35,0,12.02,1.33,17.02,3.98c5,2.65,8.92,6.33,11.76,11.03
		c2.84,4.7,4.26,10.04,4.26,16.02c0,5.97-1.42,11.31-4.26,16.02c-2.84,4.7-6.76,8.38-11.76,11.03c-5,2.65-10.68,3.98-17.02,3.98
		C353.06,153.97,347.37,152.65,342.33,150z M370.44,135.1c2.87-3.02,4.31-7.07,4.31-12.15c0-5.08-1.44-9.13-4.31-12.15
		c-2.88-3.02-6.55-4.54-11.03-4.54s-8.18,1.51-11.09,4.54c-2.91,3.02-4.37,7.08-4.37,12.15c0,5.08,1.46,9.13,4.37,12.15
		s6.61,4.54,11.09,4.54S367.56,138.12,370.44,135.1z"/>
	<path class="st0" d="M498.23,98.59c4.44,4.44,6.66,11.11,6.66,19.99v34.5h-17.47v-31.81c0-4.78-0.99-8.34-2.97-10.7
		c-1.98-2.35-4.8-3.53-8.46-3.53c-4.11,0-7.35,1.33-9.74,3.98c-2.39,2.65-3.58,6.59-3.58,11.82v30.24H445.2v-31.81
		c0-9.48-3.81-14.22-11.42-14.22c-4.03,0-7.24,1.33-9.63,3.98c-2.39,2.65-3.58,6.59-3.58,11.82v30.24h-17.47V92.82h16.69v6.94
		c2.24-2.54,4.98-4.48,8.23-5.82c3.25-1.34,6.81-2.02,10.7-2.02c4.26,0,8.1,0.84,11.54,2.52c3.43,1.68,6.2,4.13,8.29,7.34
		c2.46-3.14,5.58-5.56,9.35-7.28c3.77-1.72,7.9-2.58,12.38-2.58C487.8,91.92,493.79,94.15,498.23,98.59z"/>
	<path class="st0" d="M536.59,94.16h15.46v13.44h-15.01v45.47h-17.47v-61.6c0-6.87,2.03-12.32,6.1-16.35
		c4.07-4.03,9.8-6.05,17.19-6.05c2.61,0,5.1,0.28,7.45,0.84c2.35,0.56,4.31,1.36,5.88,2.41l-4.59,12.66
		c-2.02-1.42-4.37-2.13-7.06-2.13c-5.3,0-7.95,2.91-7.95,8.74V94.16z"/>
	<path class="st0" d="M570.58,150c-5.04-2.65-8.98-6.33-11.82-11.03c-2.84-4.7-4.26-10.04-4.26-16.02c0-5.97,1.42-11.31,4.26-16.02
		c2.84-4.7,6.78-8.38,11.82-11.03c5.04-2.65,10.73-3.98,17.08-3.98c6.34,0,12.02,1.33,17.02,3.98c5,2.65,8.92,6.33,11.76,11.03
		c2.84,4.7,4.26,10.04,4.26,16.02c0,5.97-1.42,11.31-4.26,16.02c-2.84,4.7-6.76,8.38-11.76,11.03c-5,2.65-10.68,3.98-17.02,3.98
		C581.32,153.97,575.62,152.65,570.58,150z M598.7,135.1c2.87-3.02,4.31-7.07,4.31-12.15c0-5.08-1.44-9.13-4.31-12.15
		c-2.88-3.02-6.55-4.54-11.03-4.54c-4.48,0-8.18,1.51-11.09,4.54c-2.91,3.02-4.37,7.08-4.37,12.15c0,5.08,1.46,9.13,4.37,12.15
		c2.91,3.02,6.61,4.54,11.09,4.54C592.14,139.64,595.82,138.12,598.7,135.1z"/>
	<path class="st0" d="M656.49,94.16c3.55-1.49,7.63-2.24,12.26-2.24v16.13c-1.94-0.15-3.25-0.22-3.92-0.22c-5,0-8.92,1.4-11.76,4.2
		c-2.84,2.8-4.26,7-4.26,12.6v28.45h-17.47V92.82h16.69v7.95C650.12,97.86,652.94,95.66,656.49,94.16z"/>
	<path class="st0" d="M714.45,150.16c-1.72,1.27-3.83,2.22-6.33,2.86c-2.5,0.63-5.1,0.95-7.78,0.95c-7.24,0-12.81-1.83-16.69-5.49
		c-3.88-3.66-5.82-9.03-5.82-16.13V79.49h17.47v14.67h14.9v13.44h-14.9v24.53c0,2.54,0.63,4.5,1.9,5.88
		c1.27,1.38,3.1,2.07,5.49,2.07c2.69,0,5.08-0.75,7.17-2.24L714.45,150.16z"/>
	<path class="st0" d="M778.01,98.64c4.59,4.48,6.89,11.13,6.89,19.94v34.5h-17.47v-31.81c0-4.78-1.05-8.34-3.14-10.7
		c-2.09-2.35-5.12-3.53-9.07-3.53c-4.41,0-7.92,1.36-10.53,4.09c-2.61,2.73-3.92,6.78-3.92,12.15v29.79H723.3v-83.1h17.47v29.12
		c2.31-2.31,5.11-4.09,8.4-5.32c3.29-1.23,6.87-1.85,10.75-1.85C767.38,91.92,773.42,94.16,778.01,98.64z"/>
	<path class="st0" d="M860.38,92.82v60.26h-16.58v-7.17c-2.32,2.61-5.08,4.61-8.29,5.99c-3.21,1.38-6.68,2.07-10.42,2.07
		c-7.92,0-14.19-2.28-18.82-6.83c-4.63-4.55-6.94-11.31-6.94-20.27V92.82h17.47v31.47c0,9.71,4.07,14.56,12.21,14.56
		c4.18,0,7.54-1.36,10.08-4.09c2.54-2.72,3.81-6.78,3.81-12.15V92.82H860.38z"/>
	<path class="st0" d="M926.52,95.79c4.59,2.58,8.19,6.2,10.81,10.86c2.61,4.67,3.92,10.1,3.92,16.3c0,6.2-1.31,11.63-3.92,16.3
		c-2.62,4.67-6.22,8.29-10.81,10.86c-4.59,2.58-9.69,3.86-15.29,3.86c-8.29,0-14.6-2.61-18.93-7.84v6.94h-16.69v-83.1h17.47V99.2
		c4.4-4.85,10.45-7.28,18.14-7.28C916.83,91.92,921.93,93.21,926.52,95.79z M919.24,135.1c2.87-3.02,4.31-7.07,4.31-12.15
		c0-5.08-1.44-9.13-4.31-12.15c-2.88-3.02-6.55-4.54-11.03-4.54c-4.48,0-8.16,1.51-11.03,4.54c-2.88,3.02-4.31,7.08-4.31,12.15
		c0,5.08,1.44,9.13,4.31,12.15c2.87,3.02,6.55,4.54,11.03,4.54C912.69,139.64,916.36,138.12,919.24,135.1z"/>
</g>
<g>
	<path class="st0" d="M615.97,187.93c1.6,0.88,2.85,2.13,3.76,3.74c0.91,1.61,1.36,3.47,1.36,5.58s-0.46,3.97-1.36,5.6
		c-0.91,1.62-2.17,2.88-3.76,3.76c-1.6,0.88-3.41,1.33-5.44,1.33c-1.43,0-2.74-0.25-3.92-0.74c-1.18-0.49-2.18-1.23-2.98-2.22v2.69
		h-4.64v-28.94h4.88v10.65c0.83-0.91,1.81-1.6,2.94-2.07c1.13-0.47,2.37-0.7,3.72-0.7C612.56,186.6,614.37,187.04,615.97,187.93z
		 M614.41,201.97c1.16-1.2,1.74-2.77,1.74-4.72c0-1.95-0.58-3.52-1.74-4.72s-2.63-1.79-4.43-1.79c-1.17,0-2.22,0.27-3.16,0.8
		c-0.94,0.53-1.68,1.29-2.22,2.28c-0.55,0.99-0.82,2.13-0.82,3.43c0,1.3,0.27,2.44,0.82,3.43c0.55,0.99,1.29,1.75,2.22,2.28
		c0.94,0.53,1.99,0.8,3.16,0.8C611.78,203.76,613.25,203.17,614.41,201.97z"/>
	<path class="st0" d="M645.94,186.84v20.83h-4.64v-2.65c-0.78,0.94-1.75,1.66-2.92,2.16c-1.17,0.51-2.43,0.76-3.78,0.76
		c-2.78,0-4.97-0.77-6.57-2.32s-2.4-3.84-2.4-6.88v-11.9h4.88v11.23c0,1.87,0.42,3.27,1.27,4.19c0.84,0.92,2.05,1.38,3.61,1.38
		c1.74,0,3.13-0.54,4.15-1.62c1.03-1.08,1.54-2.63,1.54-4.66v-10.53H645.94z"/>
	<path class="st0" d="M652.61,182.57c-0.6-0.56-0.9-1.25-0.9-2.09c0-0.83,0.3-1.53,0.9-2.09c0.6-0.56,1.34-0.84,2.22-0.84
		c0.88,0,1.62,0.27,2.22,0.8c0.6,0.53,0.9,1.2,0.9,2.01c0,0.86-0.29,1.58-0.88,2.16c-0.58,0.59-1.33,0.88-2.24,0.88
		C653.95,183.4,653.21,183.13,652.61,182.57z M652.38,186.84h4.88v20.83h-4.88V186.84z"/>
	<path class="st0" d="M665.5,206.16c-1.21-1.18-1.81-2.85-1.81-5.01v-22.42h4.88v22.07c0,2.08,0.97,3.12,2.92,3.12
		c0.65,0,1.23-0.13,1.75-0.39l0.23,3.9c-0.91,0.34-1.89,0.51-2.93,0.51C668.39,207.94,666.71,207.34,665.5,206.16z"/>
	<path class="st0" d="M696.83,178.72v28.94h-4.68v-2.69c-0.81,0.99-1.8,1.73-2.98,2.22c-1.18,0.49-2.49,0.74-3.92,0.74
		c-2,0-3.8-0.44-5.4-1.33c-1.6-0.88-2.85-2.14-3.76-3.76c-0.91-1.62-1.36-3.49-1.36-5.6s0.45-3.96,1.36-5.58
		c0.91-1.61,2.17-2.86,3.76-3.74c1.6-0.88,3.4-1.33,5.4-1.33c1.38,0,2.64,0.23,3.78,0.7c1.14,0.47,2.12,1.17,2.92,2.11v-10.69
		H696.83z M689,202.96c0.94-0.53,1.68-1.29,2.22-2.28c0.55-0.99,0.82-2.13,0.82-3.43c0-1.3-0.27-2.44-0.82-3.43
		c-0.55-0.99-1.29-1.75-2.22-2.28c-0.94-0.53-1.99-0.8-3.16-0.8s-2.22,0.27-3.16,0.8c-0.94,0.53-1.68,1.29-2.22,2.28
		c-0.55,0.99-0.82,2.13-0.82,3.43c0,1.3,0.27,2.44,0.82,3.43c0.55,0.99,1.29,1.75,2.22,2.28c0.94,0.53,1.99,0.8,3.16,0.8
		S688.06,203.5,689,202.96z"/>
	<path class="st0" d="M731.06,187.93c1.6,0.88,2.85,2.13,3.76,3.74c0.91,1.61,1.36,3.47,1.36,5.58s-0.46,3.97-1.36,5.6
		c-0.91,1.62-2.17,2.88-3.76,3.76c-1.6,0.88-3.41,1.33-5.44,1.33c-1.43,0-2.74-0.25-3.92-0.74c-1.18-0.49-2.18-1.23-2.98-2.22v2.69
		h-4.64v-28.94h4.88v10.65c0.83-0.91,1.81-1.6,2.94-2.07c1.13-0.47,2.37-0.7,3.72-0.7C727.64,186.6,729.46,187.04,731.06,187.93z
		 M729.5,201.97c1.16-1.2,1.74-2.77,1.74-4.72c0-1.95-0.58-3.52-1.74-4.72s-2.63-1.79-4.43-1.79c-1.17,0-2.22,0.27-3.16,0.8
		c-0.94,0.53-1.68,1.29-2.22,2.28c-0.55,0.99-0.82,2.13-0.82,3.43c0,1.3,0.27,2.44,0.82,3.43c0.55,0.99,1.29,1.75,2.22,2.28
		c0.94,0.53,1.99,0.8,3.16,0.8C726.86,203.76,728.34,203.17,729.5,201.97z"/>
	<path class="st0" d="M756.42,201.54l2.57,3c-0.91,1.12-2.08,1.96-3.51,2.54c-1.43,0.57-3.04,0.86-4.84,0.86
		c-2.29,0-4.3-0.45-6.04-1.36c-1.74-0.91-3.09-2.18-4.04-3.8c-0.95-1.62-1.42-3.46-1.42-5.52c0-2.03,0.46-3.85,1.38-5.48
		c0.92-1.62,2.2-2.89,3.82-3.8s3.46-1.37,5.52-1.37c1.95,0,3.72,0.42,5.32,1.27c1.6,0.85,2.87,2.05,3.8,3.63
		c0.94,1.57,1.4,3.41,1.4,5.52l-15.95,3.12c0.49,1.2,1.29,2.11,2.38,2.73s2.4,0.94,3.94,0.94
		C753.03,203.8,754.92,203.05,756.42,201.54z M745.52,192.26c-1.11,1.17-1.66,2.74-1.66,4.72v0.04l11.78-2.26
		c-0.34-1.27-1.02-2.3-2.05-3.08c-1.03-0.78-2.27-1.17-3.72-1.17C748.08,190.5,746.63,191.09,745.52,192.26z"/>
	<path class="st0" d="M785.48,186.84v20.83h-4.64v-2.69c-0.81,0.99-1.8,1.73-2.98,2.22c-1.18,0.49-2.49,0.74-3.92,0.74
		c-2.03,0-3.84-0.44-5.44-1.33c-1.6-0.88-2.85-2.13-3.74-3.74c-0.9-1.61-1.34-3.48-1.34-5.62c0-2.13,0.45-4,1.34-5.6
		c0.9-1.6,2.15-2.84,3.74-3.72c1.6-0.88,3.41-1.33,5.44-1.33c1.35,0,2.59,0.23,3.72,0.7c1.13,0.47,2.11,1.16,2.94,2.07v-2.54H785.48
		z M778.93,201.97c1.17-1.2,1.75-2.77,1.75-4.72c0-1.95-0.58-3.52-1.75-4.72s-2.65-1.79-4.45-1.79s-3.27,0.6-4.43,1.79
		c-1.16,1.2-1.74,2.77-1.74,4.72c0,1.95,0.58,3.52,1.74,4.72c1.16,1.2,2.63,1.79,4.43,1.79S777.76,203.17,778.93,201.97z"/>
	<path class="st0" d="M812.08,186.84v20.83h-4.64v-2.65c-0.78,0.94-1.75,1.66-2.92,2.16c-1.17,0.51-2.43,0.76-3.78,0.76
		c-2.78,0-4.97-0.77-6.57-2.32s-2.4-3.84-2.4-6.88v-11.9h4.88v11.23c0,1.87,0.42,3.27,1.27,4.19c0.84,0.92,2.05,1.38,3.61,1.38
		c1.74,0,3.13-0.54,4.15-1.62c1.03-1.08,1.54-2.63,1.54-4.66v-10.53H812.08z"/>
	<path class="st0" d="M830.21,206.53c-0.57,0.47-1.27,0.82-2.09,1.05s-1.68,0.35-2.59,0.35c-2.29,0-4.06-0.6-5.3-1.79
		c-1.25-1.2-1.87-2.94-1.87-5.23v-18.68h4.88v4.76h5.58v3.9h-5.58v9.91c0,1.01,0.25,1.79,0.76,2.32c0.51,0.53,1.21,0.8,2.12,0.8
		c1.09,0,2-0.29,2.73-0.86L830.21,206.53z"/>
	<path class="st0" d="M834.5,182.57c-0.6-0.56-0.9-1.25-0.9-2.09c0-0.83,0.3-1.53,0.9-2.09c0.6-0.56,1.34-0.84,2.22-0.84
		c0.88,0,1.62,0.27,2.22,0.8c0.6,0.53,0.9,1.2,0.9,2.01c0,0.86-0.29,1.58-0.88,2.16c-0.58,0.59-1.33,0.88-2.24,0.88
		C835.84,183.4,835.1,183.13,834.5,182.57z M834.27,186.84h4.88v20.83h-4.88V186.84z"/>
	<path class="st0" d="M850.34,185.74v1.25h5.73v3.9h-5.62v16.77h-4.88v-22c0-2.21,0.65-3.96,1.95-5.27c1.3-1.3,3.15-1.95,5.54-1.95
		c1.85,0,3.3,0.38,4.37,1.13l-1.36,3.67c-0.78-0.57-1.67-0.86-2.65-0.86C851.36,182.39,850.34,183.51,850.34,185.74z"/>
	<path class="st0" d="M879.55,186.84v20.83h-4.64v-2.65c-0.78,0.94-1.75,1.66-2.92,2.16c-1.17,0.51-2.43,0.76-3.78,0.76
		c-2.78,0-4.97-0.77-6.57-2.32s-2.4-3.84-2.4-6.88v-11.9h4.88v11.23c0,1.87,0.42,3.27,1.27,4.19c0.84,0.92,2.05,1.38,3.61,1.38
		c1.74,0,3.13-0.54,4.15-1.62c1.03-1.08,1.54-2.63,1.54-4.66v-10.53H879.55z"/>
	<path class="st0" d="M887.79,206.16c-1.21-1.18-1.81-2.85-1.81-5.01v-22.42h4.88v22.07c0,2.08,0.97,3.12,2.92,3.12
		c0.65,0,1.23-0.13,1.75-0.39l0.23,3.9c-0.91,0.34-1.89,0.51-2.93,0.51C890.69,207.94,889,207.34,887.79,206.16z"/>
	<path class="st0" d="M900.94,206.16c-1.21-1.18-1.81-2.85-1.81-5.01v-22.42H904v22.07c0,2.08,0.97,3.12,2.92,3.12
		c0.65,0,1.23-0.13,1.75-0.39l0.23,3.9c-0.91,0.34-1.89,0.51-2.93,0.51C903.83,207.94,902.15,207.34,900.94,206.16z"/>
	<path class="st0" d="M932.43,186.84v17.67c0,7.33-3.6,11-10.8,11c-1.9,0-3.71-0.25-5.44-0.76c-1.73-0.51-3.15-1.24-4.27-2.2
		l2.18-3.67c0.88,0.75,1.96,1.35,3.24,1.79c1.27,0.44,2.61,0.66,4.02,0.66c2.13,0,3.7-0.51,4.7-1.54c1-1.03,1.5-2.61,1.5-4.74v-0.98
		c-0.78,0.86-1.73,1.51-2.85,1.97c-1.12,0.46-2.33,0.68-3.63,0.68c-2.78,0-4.97-0.77-6.57-2.3s-2.4-3.83-2.4-6.9v-10.69h4.88v10.06
		c0,1.85,0.42,3.23,1.27,4.15c0.84,0.92,2.05,1.38,3.61,1.38c1.74,0,3.13-0.53,4.15-1.6c1.03-1.07,1.54-2.61,1.54-4.64v-9.36H932.43
		z"/>
</g>
</svg>
